<svg width="151" height="63" viewBox="0 0 151 63" fill="none" xmlns="http://www.w3.org/2000/svg">
<g clip-path="url(#clip0_232_1772)">
<g clip-path="url(#clip1_232_1772)">
<path d="M52.8868 22.9882C52.7701 26.6263 54.6039 28.2373 54.6492 29.2605C54.6277 29.4687 54.5561 29.6688 54.4405 29.844C54.325 30.0192 54.1688 30.1645 53.9851 30.2676L51.9116 31.7068C51.6432 31.8933 51.3269 32.0002 50.9995 32.0152C50.9299 32.0119 49.6728 32.3091 47.6819 27.9016C46.4672 29.405 44.9218 30.6128 43.1638 31.4327C41.4058 32.2526 39.482 32.6628 37.5395 32.6319C34.9022 32.7749 27.755 31.1478 28.1228 23.6034C27.8652 17.4548 33.6403 13.6352 39.613 13.9581C40.7631 13.9613 43.1121 14.0175 47.2251 14.9652V12.4562C47.6608 8.20619 44.8438 4.90862 39.9661 5.40334C39.5773 5.40494 36.8235 5.32303 32.5403 7.02723C31.3481 7.57013 31.1958 7.48018 30.7989 7.48018C29.5985 7.48018 30.0926 4.03002 30.3226 3.59313C31.1666 2.56515 36.1317 0.645723 41.0045 0.673028C44.2626 0.387326 47.5032 1.38434 50.0259 3.44857C51.0514 4.58591 51.8338 5.91753 52.3257 7.36301C52.8177 8.8085 53.0091 10.3379 52.8884 11.8587L52.8868 22.9882ZM38.8873 28.1907C44.1407 28.1153 46.3649 24.9831 46.8719 23.2966C47.2704 21.6824 47.204 20.6608 47.204 18.8956C45.6375 18.5229 43.3826 18.1166 40.7955 18.1133C38.3413 17.9302 33.859 19.0176 34.0339 23.295C33.833 25.9918 35.8353 28.3385 38.8873 28.1907ZM66.5752 31.8931C65.302 32.0087 64.7091 31.1125 64.5211 30.2274L56.4539 3.78106C56.2967 3.33453 56.193 2.87355 56.1428 2.40292C56.1131 2.2089 56.1622 2.01109 56.2795 1.85298C56.3967 1.69486 56.5725 1.58936 56.7681 1.55966C56.807 1.55323 56.4231 1.55966 60.3725 1.55966C61.7948 1.41831 62.2581 2.52821 62.4055 3.22531L68.1919 25.8457L73.5636 3.22531C73.6495 2.70811 74.0399 1.44723 75.6372 1.58054H78.417C78.7685 1.55163 80.2167 1.50023 80.4711 3.24619L85.8849 26.1557L91.8576 3.24619C91.9353 2.89603 92.2982 1.41992 93.9117 1.58054H97.1062C97.2439 1.55966 98.1024 1.45044 97.9567 2.95868C97.887 3.25583 98.5091 1.24645 89.4115 30.2483C89.2252 31.1333 88.6307 32.0296 87.3574 31.914H84.3297C82.5575 32.0987 82.3032 30.3624 82.2757 30.1873L76.9039 8.16121L71.5938 30.1648C71.5679 30.3399 71.3135 32.0762 69.5397 31.8915H66.5752V31.8931ZM110.877 32.7974C109.925 32.799 105.382 32.7492 101.585 30.8233C101.207 30.6645 100.885 30.398 100.66 30.0574C100.434 29.7168 100.316 29.3176 100.32 28.9103V27.1837C100.32 25.8264 101.325 26.0754 101.751 26.2376C103.377 26.8897 104.42 27.3844 106.418 27.7796C112.355 28.989 114.966 27.4101 115.606 27.06C117.736 25.8055 117.905 22.9352 116.456 21.4462C114.759 20.0344 113.949 19.9814 107.85 18.0732C107.098 17.866 100.77 15.8871 100.756 9.66303C100.657 5.12707 104.814 0.639297 112.018 0.67624C114.07 0.674634 119.539 1.33961 121.02 3.18515C121.238 3.52085 121.347 3.91598 121.331 4.31593V5.93982C121.331 6.65298 121.068 7.00956 120.542 7.00956C119.293 6.87142 117.077 5.21541 112.578 5.28287C111.462 5.22505 106.116 5.42904 106.356 9.2936C106.286 12.339 110.667 13.481 111.167 13.6127C117.074 15.3747 119.048 15.6671 121.392 18.3639C124.169 21.9377 122.672 26.1219 122.097 27.2688C119.006 33.2905 111.013 32.8006 110.877 32.7974ZM117.389 49.6402C106.045 57.9475 89.5767 62.3695 75.5157 62.3695C56.543 62.4935 38.2098 55.5763 24.1199 42.9776C23.0621 42.0315 23.9952 40.7353 25.2814 41.4565C40.9113 50.3215 58.6076 54.9794 76.614 54.968C90.0607 54.8965 103.361 52.1918 115.75 47.0092C117.658 46.2061 119.277 48.262 117.389 49.6402ZM122.118 44.2931C120.667 42.4427 112.515 43.4289 108.865 43.861C107.765 43.9847 107.579 43.0386 108.575 42.3399C115.066 37.8152 125.727 39.1114 126.952 40.6325C128.175 42.1536 126.62 52.745 120.543 57.8046C119.61 58.5868 118.718 58.174 119.132 57.146C120.5 53.7328 123.569 46.1451 122.118 44.2931Z" fill="#737373"/>
</g>
</g>
<defs>
<clipPath id="clip0_232_1772">
<rect width="151" height="62" fill="white" transform="translate(0 0.5)"/>
</clipPath>
<clipPath id="clip1_232_1772">
<rect width="104" height="62" fill="white" transform="translate(23.5 0.5)"/>
</clipPath>
</defs>
</svg>
