<svg width="17" height="16" viewBox="0 0 17 16" fill="none" xmlns="http://www.w3.org/2000/svg">
<g clip-path="url(#clip0_1_7632)">
<path d="M12.2429 10.3441C13.2112 9.02279 13.6449 7.38459 13.4572 5.75725C13.2695 4.12991 12.4743 2.63344 11.2307 1.56723C9.98701 0.501022 8.38665 -0.0562959 6.74973 0.00677721C5.11282 0.0698504 3.56008 0.748663 2.40217 1.90741C1.24425 3.06615 0.566548 4.61938 0.504647 6.25633C0.442745 7.89329 1.00121 9.49326 2.06831 10.7361C3.1354 11.979 4.63244 12.7732 6.25992 12.9597C7.88739 13.1462 9.52528 12.7113 10.8459 11.7421H10.8449C10.8749 11.7821 10.9069 11.8201 10.9429 11.8571L14.7929 15.7071C14.9804 15.8947 15.2348 16.0002 15.5 16.0003C15.7653 16.0004 16.0198 15.8951 16.2074 15.7076C16.395 15.5201 16.5005 15.2657 16.5006 15.0005C16.5007 14.7352 16.3954 14.4807 16.2079 14.2931L12.3579 10.4431C12.3221 10.4069 12.2837 10.3735 12.2429 10.3431V10.3441ZM12.5009 6.5001C12.5009 7.22237 12.3586 7.93757 12.0822 8.60486C11.8058 9.27215 11.4007 9.87847 10.89 10.3892C10.3793 10.8999 9.77295 11.305 9.10566 11.5814C8.43837 11.8578 7.72317 12.0001 7.0009 12.0001C6.27863 12.0001 5.56343 11.8578 4.89614 11.5814C4.22885 11.305 3.62253 10.8999 3.11181 10.3892C2.60109 9.87847 2.19596 9.27215 1.91956 8.60486C1.64316 7.93757 1.5009 7.22237 1.5009 6.5001C1.5009 5.04141 2.08036 3.64246 3.11181 2.61101C4.14326 1.57956 5.54221 1.0001 7.0009 1.0001C8.45959 1.0001 9.85853 1.57956 10.89 2.61101C11.9214 3.64246 12.5009 5.04141 12.5009 6.5001Z" fill="#23A6F0"/>
</g>
<defs>
<clipPath id="clip0_1_7632">
<rect width="16.0006" height="16.0003" fill="white" transform="translate(0.5)"/>
</clipPath>
</defs>
</svg>
